<?xml version="1.0" encoding="utf-8"?>
<!-- Generator: Adobe Illustrator 27.3.1, SVG Export Plug-In . SVG Version: 6.00 Build 0)  -->
<svg version="1.1" id="Слой_1" xmlns="http://www.w3.org/2000/svg" xmlns:xlink="http://www.w3.org/1999/xlink" x="0px" y="0px"
	 viewBox="0 0 88.3 88.3" style="enable-background:new 0 0 88.3 88.3;" xml:space="preserve">
<style type="text/css">
	.st0{fill:none;stroke:#57BAEA;stroke-width:8;stroke-miterlimit:10;}
</style>
<path class="st0" d="M-437.2-223.2c-8.5-20.5-32-30.2-52.5-21.7s-30.2,32-21.7,52.5s32,30.2,52.5,21.7c15.5-6.4,24.8-21.3,24.8-37.1
	"/>
<path class="st0" d="M-451.3-137.9c-15.7-15.7-41.1-15.7-56.8,0c-15.7,15.7-15.7,41.1,0,56.8c15.7,15.7,41.1,15.7,56.8,0
	c7.8-7.8,11.7-18.1,11.7-28.4"/>
<path class="st0" d="M-459-37.1c-20.5-8.5-44,1.2-52.5,21.7c-8.5,20.5,1.2,44,21.7,52.5c20.5,8.5,44-1.2,52.5-21.7
	c2.1-5,3.1-10.2,3-15.4"/>
<path class="st0" d="M-474.3,69.4c-22.2,0-40.2,18-40.2,40.2s18,40.2,40.2,40.2s40.2-18,40.2-40.2"/>
<circle class="st0" cx="-470.8" cy="-311.1" r="40.2"/>
</svg>
